<?xml version="1.0" encoding="UTF-8"?>
<svg xmlns="http://www.w3.org/2000/svg" id="aad5e333-484b-4d56-86f8-9498171d7d04" data-name="katman 1" viewBox="0 0 768 768">
  <defs>
    <style>.f4251cd2-07c4-4ecd-86be-9ca8bbf82925{fill:#fff;stroke-width:4px;}.bd85986b-cf50-492c-8015-59b149bb9f98,.f4251cd2-07c4-4ecd-86be-9ca8bbf82925{stroke:#1e73be;stroke-miterlimit:10;}.b099728b-cd7e-4e76-bdad-ca9f50f6bb0b,.bd85986b-cf50-492c-8015-59b149bb9f98{fill:#1e73be;}.bd85986b-cf50-492c-8015-59b149bb9f98{stroke-width:0.25px;}.ebfbc324-8d4d-4798-a16c-30a53ac1f9df{fill:#09a7e0;}</style>
  </defs>
  <circle class="f4251cd2-07c4-4ecd-86be-9ca8bbf82925" cx="385.34" cy="383.22" r="333.5"></circle>
  <path class="bd85986b-cf50-492c-8015-59b149bb9f98" d="M168.64,514.13,133.4,537l-5.55-8.55,35.23-22.87ZM182.81,536l-35.23,22.87L142,550.28l35.23-22.86Zm-15.89,5.6-7.69,4.91-14.92-23,7.65-5Z"></path>
  <path class="bd85986b-cf50-492c-8015-59b149bb9f98" d="M162,504.07l-45.14,1.64-3.47-7.91,31.84-32,4.14,9.46-16.33,15.8c-.64.63-1.33,1.29-2.08,2s-1.53,1.37-2.34,2.08l-2.37,2.05c-.78.67-1.51,1.27-2.2,1.79l-.78-1.63c1-.18,2-.33,3-.44l3-.32c1-.1,2-.18,3-.22s2-.13,3.08-.24L158,494.84Zm-10.55-4-8.31.18-7.76-17.7,5.79-5.94Z"></path>
  <path class="bd85986b-cf50-492c-8015-59b149bb9f98" d="M145.29,464.15,137,466.49l-1.93-6.81-23.9,6.77,1.93,6.81-8.26,2.34-6.65-23.5,8.25-2.34,2,6.87,23.9-6.76-2-6.87,8.26-2.34Z"></path>
  <path class="bd85986b-cf50-492c-8015-59b149bb9f98" d="M137,434l-41.6,5.8-2.61-18.71a15.35,15.35,0,0,1,.71-7.46,13,13,0,0,1,4-5.74,12.9,12.9,0,0,1,6.55-2.8,13.77,13.77,0,0,1,7.3.86,13.24,13.24,0,0,1,5.6,4.37,14.83,14.83,0,0,1,2.8,7L121,426.4l14.61-2Zm-23.69-6.51-1.14-8.2a5.37,5.37,0,0,0-1.06-2.61,4.61,4.61,0,0,0-2.18-1.51,6.34,6.34,0,0,0-2.94-.23,5.57,5.57,0,0,0-2.73,1.11,4.78,4.78,0,0,0-1.58,2.31,7.36,7.36,0,0,0-.2,3.33l1,7.31Zm20.47-16.55-17.3,13.2L113.54,414l18.62-14.6Z"></path>
  <path class="bd85986b-cf50-492c-8015-59b149bb9f98" d="M132.74,368.39l-32.9-2.6-1,12.45-9-.71,2.78-35.35,9,.71-1,12.74,32.9,2.59Z"></path>
  <path class="bd85986b-cf50-492c-8015-59b149bb9f98" d="M135.32,341.4l-40.93-9.46,4.26-18.41a15.23,15.23,0,0,1,3.33-6.71,13.21,13.21,0,0,1,5.81-3.93,12.85,12.85,0,0,1,7.11-.26,13.71,13.71,0,0,1,6.51,3.41,13.36,13.36,0,0,1,3.67,6.08,14.77,14.77,0,0,1,.11,7.54l-2.07,8.94,14.38,3.33Zm-19.8-14.55,1.87-8.07a5.32,5.32,0,0,0-.06-2.81,4.54,4.54,0,0,0-1.5-2.2,6.51,6.51,0,0,0-2.66-1.26,5.61,5.61,0,0,0-2.94.06,4.83,4.83,0,0,0-2.31,1.59,7.44,7.44,0,0,0-1.38,3l-1.66,7.19Zm25-8.13-20.87,6.13.89-10.51,22.6-7Z"></path>
  <path class="bd85986b-cf50-492c-8015-59b149bb9f98" d="M142.66,308.55l-32.82-31,3.21-8,45.13.28-3.84,9.58-22.72-.56c-.9,0-1.85-.05-2.86-.11l-3.11-.21-3.13-.25c-1-.09-2-.19-2.82-.32l.61-1.69c.84.59,1.65,1.21,2.43,1.84l2.32,1.9c.76.62,1.51,1.28,2.25,2s1.51,1.36,2.32,2l16.78,15.24Zm-4.52-10.34-5.95-5.8,7.18-17.94,8.29,0Z"></path>
  <path class="bd85986b-cf50-492c-8015-59b149bb9f98" d="M159.13,268.23l-35.89-21.81,4.74-7.8,37.07-3.24-1.28,1.54c-1.24-.51-2.4-1-3.48-1.55s-2.16-1-3.2-1.56-2.09-1.06-3.15-1.63-2.19-1.21-3.4-1.92-2.51-1.5-3.91-2.35l-8.87-5.39,5.14-8.46,35.89,21.81-4.79,7.9-38.4,3.56,2-2.4L142,247l3.23,1.54q1.41.69,2.52,1.29c.74.4,1.46.81,2.18,1.21s1.49.88,2.35,1.4l12,7.29Z"></path>
  <path class="bd85986b-cf50-492c-8015-59b149bb9f98" d="M192.88,220a26,26,0,0,1-5.59,5.06,19,19,0,0,1-6,2.64,23.55,23.55,0,0,1-6.4.63L173.52,219a16.48,16.48,0,0,0,8-1.11,15,15,0,0,0,5.11-3.88,9.48,9.48,0,0,0,1.58-2.52,4.33,4.33,0,0,0,.38-2.35,2.92,2.92,0,0,0-1.06-1.85,3,3,0,0,0-1.53-.7,4.45,4.45,0,0,0-1.76.12,9.43,9.43,0,0,0-1.95.78,17.06,17.06,0,0,0-2.07,1.23c-.69.47-1.36,1-2,1.51a33.2,33.2,0,0,1-5.38,3.38,14.47,14.47,0,0,1-4.91,1.46,10.63,10.63,0,0,1-4.53-.5,12.86,12.86,0,0,1-4.18-2.44,10.76,10.76,0,0,1-3.12-4.35,12.92,12.92,0,0,1-.86-5.29A16.11,16.11,0,0,1,156.5,197a19.3,19.3,0,0,1,3.17-5.18,25.72,25.72,0,0,1,5.26-4.86,15,15,0,0,1,10.52-2.52l.55,8.72a13.25,13.25,0,0,0-3.74.42,11.54,11.54,0,0,0-3.2,1.37,10.72,10.72,0,0,0-2.61,2.23,9.49,9.49,0,0,0-1.66,2.65,4.66,4.66,0,0,0-.33,2.35,2.83,2.83,0,0,0,1,1.81,2.63,2.63,0,0,0,1.71.67,5.88,5.88,0,0,0,2-.4,11.56,11.56,0,0,0,2.25-1.17,23.29,23.29,0,0,0,2.26-1.69,32.9,32.9,0,0,1,5.19-3.43,18.45,18.45,0,0,1,5-1.82,10.42,10.42,0,0,1,9.2,2.51,12.57,12.57,0,0,1,4.28,6.41,13.38,13.38,0,0,1-.25,7.43A21.24,21.24,0,0,1,192.88,220Z"></path>
  <path class="bd85986b-cf50-492c-8015-59b149bb9f98" d="M206.49,203.71l-27.92-31.37,13.54-12.05a13.72,13.72,0,0,1,6.46-3.34,13.57,13.57,0,0,1,7,.4,13.72,13.72,0,0,1,6,4A14.41,14.41,0,0,1,215,168a13.72,13.72,0,0,1-.31,7.06,13.37,13.37,0,0,1-4,6.08l-5.92,5.26,9.33,10.49Zm-7.79-23.83,5-4.42a4.59,4.59,0,0,0,1.35-2.09,4.91,4.91,0,0,0,.1-2.5,5.11,5.11,0,0,0-1.26-2.42,5,5,0,0,0-2.25-1.53,4.7,4.7,0,0,0-2.41-.1A4.92,4.92,0,0,0,197,168l-5,4.43Z"></path>
  <path class="bd85986b-cf50-492c-8015-59b149bb9f98" d="M234.4,179.73l-23.29-34.95,8.49-5.66,18.3,27.46,15.58-10.38,5,7.49Z"></path>
  <path class="bd85986b-cf50-492c-8015-59b149bb9f98" d="M257.71,163.71l-3-45.07,7.8-3.71,32.94,30.84-9.32,4.44-16.3-15.84c-.65-.62-1.32-1.29-2-2s-1.42-1.49-2.15-2.27l-2.13-2.31c-.69-.76-1.3-1.47-1.85-2.15l1.6-.82c.22,1,.39,2,.54,3s.27,2,.41,3,.24,2,.31,3,.19,2,.33,3.07l2,22.58Zm3.7-10.66-.43-8.3,17.45-8.3,6.12,5.59Z"></path>
  <path class="bd85986b-cf50-492c-8015-59b149bb9f98" d="M297.21,145.28,285.64,104.9l8.76-2.51,29.44,22.77-2,.26c-.56-1.21-1.06-2.38-1.5-3.5s-.88-2.23-1.3-3.31-.81-2.2-1.2-3.34-.79-2.38-1.19-3.72-.83-2.8-1.29-4.37l-2.85-10L322,94.47l11.57,40.38-8.88,2.54L294.1,114l3.06-.44,1.83,4.56c.51,1.25.95,2.36,1.33,3.33s.71,1.86,1,2.66.53,1.58.77,2.37.51,1.65.79,2.61l3.86,13.5Z"></path>
  <path class="bd85986b-cf50-492c-8015-59b149bb9f98" d="M349.87,132.68l-3.93-32.76-12.4,1.48-1.07-8.93,35.21-4.23,1.07,8.94L356.06,98.7,360,131.46Z"></path>
  <path class="bd85986b-cf50-492c-8015-59b149bb9f98" d="M403.78,130.85,406.84,98l-12.43-1.15.84-9,35.31,3.28-.84,9L417,98.94l-3.06,32.86Z"></path>
  <path class="bd85986b-cf50-492c-8015-59b149bb9f98" d="M430.73,133.81l10-40.78,18.36,4.52a15.24,15.24,0,0,1,6.66,3.43,13.11,13.11,0,0,1,3.84,5.86,12.78,12.78,0,0,1,.16,7.11,13.76,13.76,0,0,1-3.5,6.46,13.37,13.37,0,0,1-6.14,3.59,14.77,14.77,0,0,1-7.53,0l-8.92-2.2-3.53,14.34Zm14.82-19.58,8.05,2a5.24,5.24,0,0,0,2.81,0,4.56,4.56,0,0,0,2.21-1.46,6.41,6.41,0,0,0,1.31-2.65,5.62,5.62,0,0,0,0-2.94,4.74,4.74,0,0,0-1.56-2.33,7.51,7.51,0,0,0-3-1.42l-7.17-1.76Zm7.78,25.15-5.84-21,10.5,1,6.64,22.71Z"></path>
  <path class="bd85986b-cf50-492c-8015-59b149bb9f98" d="M463.46,141.63,495,109.25l8,3.33L502,157.69l-9.52-4,.88-22.71c0-.89.08-1.85.15-2.86s.16-2,.26-3.11.19-2.1.29-3.12.22-2,.36-2.81l1.69.63c-.61.84-1.23,1.64-1.88,2.41l-1.93,2.28c-.64.75-1.3,1.49-2,2.22s-1.38,1.5-2.06,2.3L472.76,145.5Zm10.4-4.38,5.89-5.86,17.83,7.43-.07,8.29Z"></path>
  <path class="bd85986b-cf50-492c-8015-59b149bb9f98" d="M503.1,158.91l4.36-7.39,6.1,3.6,12.62-21.4-6.1-3.6,4.35-7.39,21,12.4-4.36,7.39L535,138.9l-12.61,21.4,6.15,3.62-4.36,7.39Z"></path>
  <path class="bd85986b-cf50-492c-8015-59b149bb9f98" d="M529.88,174.7l26.47-32.61,7.08,5.75L561.62,185l-1.34-1.48q1-1.72,2-3.24c.66-1,1.32-2,2-2.95s1.33-1.93,2-2.9,1.5-2,2.37-3.11,1.82-2.28,2.85-3.56l6.54-8.05,7.69,6.24-26.47,32.6-7.18-5.82,1.68-38.52,2.11,2.26-2.69,4.11c-.74,1.13-1.39,2.13-2,3s-1.12,1.65-1.61,2.32-1,1.34-1.5,2-1.07,1.37-1.7,2.14l-8.85,10.9Z"></path>
  <path class="bd85986b-cf50-492c-8015-59b149bb9f98" d="M563.79,203.49l6.32-5.8,4.79,5.22,18.31-16.79-4.79-5.22,6.33-5.79,16.5,18-6.32,5.79-4.83-5.26-18.31,16.79,4.83,5.26-6.33,5.8Z"></path>
  <path class="bd85986b-cf50-492c-8015-59b149bb9f98" d="M584.8,226.39l34.84-23.45,5.09,7.56-12.59,35-.85-1.81c1-.9,1.94-1.74,2.87-2.51s1.84-1.52,2.75-2.25,1.84-1.45,2.8-2.18,2-1.47,3.17-2.27,2.4-1.66,3.76-2.57l8.61-5.8,5.53,8.21L605.94,257.8l-5.16-7.67,12.85-36.35,1.36,2.77-3.77,3.16c-1,.86-2,1.63-2.76,2.29s-1.55,1.25-2.22,1.75-1.35,1-2,1.46-1.42,1-2.25,1.55l-11.64,7.84Z"></path>
  <path class="bd85986b-cf50-492c-8015-59b149bb9f98" d="M616.62,282a24.27,24.27,0,0,1-2.22-9,20.37,20.37,0,0,1,1.32-8.27,20.05,20.05,0,0,1,4.51-6.92,23.56,23.56,0,0,1,7.3-4.94,22,22,0,0,1,8.54-2,20.31,20.31,0,0,1,8.19,1.52,21.69,21.69,0,0,1,7.1,4.76,25.05,25.05,0,0,1,5.16,7.66,23.47,23.47,0,0,1,1.84,6.37,22.42,22.42,0,0,1,0,6.12,18.17,18.17,0,0,1-1.57,5.36l-8.48-3a18.17,18.17,0,0,0,.94-3.8,16,16,0,0,0,0-3.72,12.38,12.38,0,0,0-1-3.74,11.87,11.87,0,0,0-2.84-4,12,12,0,0,0-4-2.43,12.17,12.17,0,0,0-4.71-.7,13.82,13.82,0,0,0-5,1.21,13.06,13.06,0,0,0-4.21,2.92,12.52,12.52,0,0,0-2.64,4.05,12.51,12.51,0,0,0,.25,9.67,10.39,10.39,0,0,0,2,3,9.3,9.3,0,0,0,2.64,2,7.92,7.92,0,0,0,3,.77,6.52,6.52,0,0,0,3.06-.57l1.43-.63-1.33,2-4.7-10.59,7.3-3.23,8,18a15.12,15.12,0,0,1-1.57.9l-2,1c-.65.31-1.14.54-1.47.68a18.43,18.43,0,0,1-7.42,1.69,17.21,17.21,0,0,1-7-1.39,18.87,18.87,0,0,1-6-4.15A21.38,21.38,0,0,1,616.62,282Z"></path>
  <path class="bd85986b-cf50-492c-8015-59b149bb9f98" d="M634,340a23.44,23.44,0,0,1,0-8.87,20.58,20.58,0,0,1,3.15-7.64,20,20,0,0,1,6-5.73,23.59,23.59,0,0,1,8.34-3.18,21.69,21.69,0,0,1,8.8.06A20.79,20.79,0,0,1,673.58,324a23.53,23.53,0,0,1,3.22,8.4,22.19,22.19,0,0,1,.32,5.92,20.35,20.35,0,0,1-1.28,5.7,18.05,18.05,0,0,1-2.78,4.89l-8.17-4.82a17.54,17.54,0,0,0,1.78-3.05,11.31,11.31,0,0,0,.94-3.32,11.76,11.76,0,0,0-.14-3.63,11.63,11.63,0,0,0-1.69-4.3,11,11,0,0,0-7.36-4.93,13.92,13.92,0,0,0-5.18,0,13.37,13.37,0,0,0-4.76,1.81,11.57,11.57,0,0,0-3.34,3.19,10.52,10.52,0,0,0-1.69,4.32,14.72,14.72,0,0,0,.12,5.19,12.28,12.28,0,0,0,1.2,3.5,13.59,13.59,0,0,0,2,2.88,13.83,13.83,0,0,0,2.57,2.18l-6.76,6.27a14.29,14.29,0,0,1-3.68-3.37,24,24,0,0,1-3.05-5A25.84,25.84,0,0,1,634,340Z"></path>
  <path class="bd85986b-cf50-492c-8015-59b149bb9f98" d="M637.57,359.16l42-1.66,1.15,29.26-8.69.35-.77-19.37-24.58,1,.79,20-8.69.34ZM655,363.28l8.28-.33.86,21.76-8.27.33Z"></path>
  <path class="bd85986b-cf50-492c-8015-59b149bb9f98" d="M638.78,394.61l41.7,5-1.08,9.05L647,427l.54-1.93c1.33,0,2.6,0,3.81,0s2.39.05,3.55.09,2.35.1,3.54.18,2.5.19,3.89.34l4.53.51,10.31,1.23L676,437.18l-41.71-5,1.1-9.18,33.46-19.15-.78,3-4.92-.08c-1.34,0-2.54,0-3.58-.06s-2-.07-2.83-.13-1.66-.12-2.48-.2l-2.72-.29-13.94-1.67Z"></path>
  <path class="bd85986b-cf50-492c-8015-59b149bb9f98" d="M630,448l31.72,9.08,3.44-12,8.65,2.48-9.76,34.09-8.65-2.48,3.52-12.29-31.73-9.07Z"></path>
  <path class="bd85986b-cf50-492c-8015-59b149bb9f98" d="M622,474l38.32,17.2-12,26.71-7.93-3.56,7.93-17.68-22.44-10.07-8.18,18.22-7.94-3.56Zm13.74,11.43,7.56,3.39-8.92,19.87-7.56-3.39Z"></path>
  <path class="bd85986b-cf50-492c-8015-59b149bb9f98" d="M594.42,525.91l21.72,1.25-4.37,9.6-23.64-1ZM607,506.32,642.34,529l-10.21,15.91a15.2,15.2,0,0,1-5.4,5.19,13,13,0,0,1-6.78,1.74,12.82,12.82,0,0,1-6.79-2.14,13.77,13.77,0,0,1-5-5.41,13.23,13.23,0,0,1-1.41-7,14.82,14.82,0,0,1,2.44-7.13l5-7.73-12.43-8Zm13.74,20.36-4.47,7a5.27,5.27,0,0,0-.89,2.67,4.54,4.54,0,0,0,.66,2.57,6.41,6.41,0,0,0,2.09,2.09,5.58,5.58,0,0,0,2.79.93,4.77,4.77,0,0,0,2.71-.72,7.53,7.53,0,0,0,2.32-2.4l4-6.21Z"></path>
  <g id="b806db4e-ec39-492b-8958-3df2dd314f2e" data-name="b16d6bd4-1bba-46df-9e32-220ea95914b3">
    <path class="ebfbc324-8d4d-4798-a16c-30a53ac1f9df" d="M391.75,528.15a168.74,168.74,0,0,1-7.35-24.82,109.5,109.5,0,0,1,6-51.43c3-9.62,10.64-9.88,20-9.12a192.33,192.33,0,0,0,36.23,0c7.85-1.77,10.13-4.43,9.88-14.82a21.21,21.21,0,0,0-4.31-12.16s2.16-6.71,5.07-6.46,2.79-5.7,1.9-9.12-9.12-3.29-9.12-3.29c7-.76,5.19,0,9.12-2.41a11.72,11.72,0,0,0,3.93-7.34s-4.56-5.45-1.27-8.24,4.81-2,10.13-2.53a7.86,7.86,0,0,0,6.72-8.87v-.12a12.31,12.31,0,0,0-.51-2c-1.52-5.32-19-30.91-18.11-38.25a80.66,80.66,0,0,0,3.8-21.92,133.61,133.61,0,0,0-9.12-27.61h0a24.23,24.23,0,0,0-6.21-23.43,50.43,50.43,0,0,0-12.16-9.12l-1.52-.89a178.08,178.08,0,0,0-45.34-7.85c9.12,84.36-36.23,162.38-48.14,245a434.4,434.4,0,0,1,40.79,47A79,79,0,0,0,391.75,528.15Z"></path>
    <path class="b099728b-cd7e-4e76-bdad-ca9f50f6bb0b" d="M438.48,348.67A30.46,30.46,0,0,0,429.36,333a41.93,41.93,0,0,1-10.89-18.74,18.79,18.79,0,0,1,1.39-7.86,22.19,22.19,0,0,0,1.9-12.16,105.8,105.8,0,0,0-20-56.87c-1.14-.76-2.15-1.52-3.17-2.28s-3.92,0-5.82,0a45.14,45.14,0,0,1-10.13-1.14A41.46,41.46,0,0,1,369,236.57v1.14h.76c3.92,14.57,7.34,56.37-44.34,136-22.29,34.58-28.75,66.75-19,95.63a102.45,102.45,0,0,0,32.81,45.85l2.28,1.9a39.79,39.79,0,0,1,10.26,1.27,218.81,218.81,0,0,0,32.55,7.09h0a91.12,91.12,0,0,1-24.44-62.69A81,81,0,0,1,370,419.48a17.15,17.15,0,0,1,6.71-.89,62.74,62.74,0,0,1,11.91.76,63.72,63.72,0,0,0,12.92.76,24.27,24.27,0,0,0,13-2.79,21.3,21.3,0,0,0,7.86-22.42v-3c0-.88,0-.5,1.14-1.64a9.59,9.59,0,0,0,4-8.24,12.82,12.82,0,0,0-.63-4.3,10.2,10.2,0,0,0,2.4-6.46,11.81,11.81,0,0,0-3.42-8.24v-.5l2.66-1.4C432.28,359.18,438.61,355.51,438.48,348.67Z"></path>
    <path class="b099728b-cd7e-4e76-bdad-ca9f50f6bb0b" d="M393.77,161.21a208.59,208.59,0,0,1,149.47,57.5A11.46,11.46,0,0,1,545,234.8l-1.14,1.14-37.75,39.14a9.84,9.84,0,0,1-13.8,1.77,11.46,11.46,0,0,1-1.78-1.77,145.7,145.7,0,0,0-95.25-36.23c-79,0-137.68,66.12-137.68,144-1.65,77,59.53,140.72,136.54,142.37h2a147.57,147.57,0,0,0,94.74-35.34,11.41,11.41,0,0,1,15.71,0L544.88,529a11.62,11.62,0,0,1-.63,16.47l-.13.12h0A211.92,211.92,0,0,1,394,605.55c-122.62,6.71-227.49-87.28-234.21-210s87.27-227.49,210-234.21c5.32-.25,10.64-.38,15.84-.25l8.1.13Z"></path>
  </g>
</svg>
